# Blender 4.3.2
# www.blender.org
mtllib Car.mtl
o Cube
v 0.722156 0.725592 0.962702
v 0.724829 -0.627792 2.484311
v -0.722156 0.725592 0.962701
v -0.724829 -0.627792 2.484311
v 0.538899 0.717917 -1.246352
v 0.824934 -0.452725 -1.000000
v -0.538899 0.717917 -1.246352
v -0.824933 -0.452725 -1.000000
v 0.939532 0.157913 2.273579
v -0.824933 -0.029063 -0.990027
v -0.939532 0.157913 2.273579
v 0.824934 -0.029063 -0.990027
v 0.724829 -0.627792 -0.444129
v -0.724829 -0.627792 -0.444129
v -0.939532 0.157914 -0.876622
v -0.722156 0.725592 -1.071420
v 0.939532 0.157914 -0.876622
v 0.722156 0.725592 -1.071420
v -0.519295 0.074464 -0.611889
v 0.519295 0.074464 -0.611889
v 0.519295 -0.192231 -0.618167
v -0.519295 -0.192231 -0.618167
v -0.339237 0.544687 -0.773246
v 0.339237 0.544687 -0.773246
v -1.000000 0.000000 -1.000000
v -0.661687 0.883506 -1.303174
v -0.499068 0.808305 1.173653
v 0.661687 0.883506 -1.303174
v 0.499068 0.808305 1.173653
v 0.779789 0.075201 2.866529
v -0.779789 0.075201 2.866529
v 1.000000 0.000000 -1.000000
v -0.991404 0.293271 -0.451250
v -0.851168 0.659499 -0.576921
v -0.851168 0.659499 0.735359
v 0.851168 0.659499 -0.576920
v 0.851168 0.659499 0.735359
v 0.991404 0.293271 1.581049
v -0.991404 0.293271 1.581049
v 0.991404 0.293271 -0.451250
v 0.661687 0.883506 1.000000
v -0.661687 0.883506 1.000000
v 1.000000 0.000000 3.040182
v -1.000000 0.000000 3.040182
v 0.347140 0.816591 1.483240
v -0.347140 0.816591 1.483240
v 0.542403 0.306661 2.660765
v -0.542403 0.306661 2.660765
vn -0.0000 1.0000 -0.0000
vn -0.4559 0.8900 -0.0000
vn -0.7756 0.0149 -0.6310
vn -0.0000 -1.0000 -0.0000
vn -0.5552 0.7928 0.2513
vn 0.6899 0.6990 0.1883
vn 0.9159 -0.4014 -0.0000
vn -0.0000 -0.6629 0.7487
vn 0.7756 0.0149 -0.6310
vn -0.9159 -0.4014 -0.0000
vn -0.0000 -0.9538 -0.3004
vn -0.0000 -0.3246 -0.9459
vn 0.9313 -0.3601 0.0543
vn -0.0710 -0.6785 -0.7312
vn -0.0000 0.0235 -0.9997
vn -0.0000 0.8261 -0.5636
vn -0.7500 -0.4527 -0.4823
vn -0.0000 -0.9390 -0.3438
vn 0.7500 -0.4527 -0.4823
vn -0.9339 0.3576 -0.0000
vn 0.9339 0.3576 -0.0000
vn 0.9338 -0.3578 -0.0000
vn -0.6899 0.6990 0.1883
vn 0.4560 0.8900 -0.0000
vn -0.9354 0.2876 -0.2056
vn -0.9338 -0.3578 -0.0000
vn 0.9354 0.2876 -0.2056
vn -0.0000 0.9176 0.3974
vn -0.0000 0.9996 -0.0268
vn -0.0000 0.6644 0.7474
vn 0.5552 0.7928 0.2513
vn -0.4560 0.8900 -0.0000
vn -0.0607 0.0235 -0.9979
vn -0.9844 -0.0041 0.1760
vt 0.875000 0.500000
vt 0.625000 0.750000
vt 0.625000 0.500000
vt 0.602658 0.778732
vt 0.602658 0.982509
vt 0.495888 0.227334
vt 0.409858 0.228117
vt 0.375000 0.500000
vt 0.125000 0.750000
vt 0.125000 0.500000
vt 0.614360 0.716787
vt 0.510640 0.724543
vt 0.602658 0.471268
vt 0.522342 0.474752
vt 0.500000 0.250000
vt 0.375000 0.250000
vt 0.500000 0.500000
vt 0.375000 0.750000
vt 0.494213 0.021883
vt 0.409858 0.021883
vt 0.500000 0.750000
vt 0.375000 1.000000
vt 0.375000 0.000000
vt 0.601572 0.029980
vt 0.500000 0.000000
vt 0.625000 0.000000
vt 0.625000 0.250000
vt 0.601572 0.220020
vt 0.500000 1.000000
vt 0.522342 0.985587
vt 0.625000 1.000000
vt 0.602658 0.267491
vt 0.522342 0.775248
vt 0.522342 0.264413
vt 0.614360 0.533213
vt 0.510640 0.525457
vt 0.875000 0.750000
s 0
usemtl Material
f 28/1/1 42/2/1 41/3/1
f 3/4/2 34/5/2 35/4/2
f 12/6/3 21/7/3 20/6/3
f 2/8/4 14/9/4 13/10/4
f 27/11/5 48/12/5 46/11/5
f 1/13/6 38/14/6 37/13/6
f 32/15/7 2/8/7 13/16/7
f 43/17/8 4/18/8 2/8/8
f 10/19/9 22/20/9 8/20/9
f 44/21/10 14/22/10 4/18/10
f 6/7/11 14/23/11 8/20/11
f 7/24/12 25/25/12 26/26/12
f 6/7/13 32/15/13 13/16/13
f 7/24/12 28/27/12 5/28/12
f 10/19/14 14/23/14 25/25/14
f 5/28/12 32/15/12 12/6/12
f 23/24/12 20/6/12 19/19/12
f 19/19/15 21/7/15 22/20/15
f 8/20/16 21/7/16 6/7/16
f 12/6/17 24/28/17 5/28/17
f 5/28/18 23/24/18 7/24/18
f 10/19/19 23/24/19 19/19/19
f 16/5/20 25/29/20 15/30/20
f 16/5/20 42/2/20 26/31/20
f 18/32/21 41/3/21 1/13/21
f 9/14/21 41/3/21 43/17/21
f 11/33/20 42/2/20 3/4/20
f 18/32/21 32/15/21 28/27/21
f 9/14/21 32/15/21 17/34/21
f 11/33/20 25/29/20 44/21/20
f 35/4/20 33/30/20 39/33/20
f 40/34/21 37/13/21 38/14/21
f 17/34/22 38/14/22 9/14/22
f 3/4/23 39/33/23 11/33/23
f 1/13/24 36/32/24 18/32/24
f 15/30/25 34/5/25 16/5/25
f 15/30/26 39/33/26 33/30/26
f 17/34/27 36/32/27 40/34/27
f 29/35/28 42/2/28 27/11/28
f 30/36/28 41/3/28 29/35/28
f 31/12/28 42/2/28 44/21/28
f 31/12/28 43/17/28 30/36/28
f 45/35/28 48/12/28 47/36/28
f 29/35/29 46/11/29 45/35/29
f 30/36/30 48/12/30 31/12/30
f 29/35/31 47/36/31 30/36/31
f 28/1/1 26/37/1 42/2/1
f 3/4/32 16/5/32 34/5/32
f 12/6/3 6/7/3 21/7/3
f 2/8/4 4/18/4 14/9/4
f 27/11/5 31/12/5 48/12/5
f 1/13/6 9/14/6 38/14/6
f 32/15/7 43/17/7 2/8/7
f 43/17/8 44/21/8 4/18/8
f 10/19/9 19/19/9 22/20/9
f 44/21/10 25/29/10 14/22/10
f 6/7/11 13/16/11 14/23/11
f 7/24/12 10/19/12 25/25/12
f 6/7/33 12/6/33 32/15/33
f 7/24/12 26/26/12 28/27/12
f 10/19/34 8/20/34 14/23/34
f 5/28/12 28/27/12 32/15/12
f 23/24/12 24/28/12 20/6/12
f 19/19/15 20/6/15 21/7/15
f 8/20/16 22/20/16 21/7/16
f 12/6/17 20/6/17 24/28/17
f 5/28/18 24/28/18 23/24/18
f 10/19/19 7/24/19 23/24/19
f 16/5/20 26/31/20 25/29/20
f 16/5/20 3/4/20 42/2/20
f 18/32/21 28/27/21 41/3/21
f 9/14/21 1/13/21 41/3/21
f 11/33/20 44/21/20 42/2/20
f 18/32/21 17/34/21 32/15/21
f 9/14/21 43/17/21 32/15/21
f 11/33/20 15/30/20 25/29/20
f 35/4/20 34/5/20 33/30/20
f 40/34/21 36/32/21 37/13/21
f 17/34/22 40/34/22 38/14/22
f 3/4/23 35/4/23 39/33/23
f 1/13/24 37/13/24 36/32/24
f 15/30/25 33/30/25 34/5/25
f 15/30/26 11/33/26 39/33/26
f 17/34/27 18/32/27 36/32/27
f 29/35/28 41/3/28 42/2/28
f 30/36/28 43/17/28 41/3/28
f 31/12/28 27/11/28 42/2/28
f 31/12/28 44/21/28 43/17/28
f 45/35/28 46/11/28 48/12/28
f 29/35/29 27/11/29 46/11/29
f 30/36/30 47/36/30 48/12/30
f 29/35/31 45/35/31 47/36/31
